# xmcd
#
# Track frame offsets:
# 150
# 20463
# 36043
# 54865
# 70830
# 90618
# 107956
# 125951
# 148101
# 168143
#
# Disc length: 2528 seconds
#
#
# Revision: 0
# Processed by: cddbd v1.5.1PL2 Copyright (c) Steve Scherf et al.
# Submitted via: FreeRIP 2.944 
#
DISCID=8609de0a
DTITLE=The Robert Cray Band - Don't Be Afraid Of The Dark
DYEAR=1988
DGENRE=Blues
TTITLE0=Don't Be Afraid Of The Dark
TTITLE1=Don't You Even Care?
TTITLE2=Your Secret's Safe With Me
TTITLE3=I Can't Go Home
TTITLE4=Night Patrol
TTITLE5=Acting This Way
TTITLE6=Gotta Change The Rules
TTITLE7=Across The Line
TTITLE8=At Last
TTITLE9=Laugh Out Loud
EXTD=
EXTT0=
EXTT1=
EXTT2=
EXTT3=
EXTT4=
EXTT5=
EXTT6=
EXTT7=
EXTT8=
EXTT9=
PLAYORDER=
